<?xml version="1.0" standalone="no"?><!DOCTYPE svg PUBLIC "-//W3C//DTD SVG 1.1//EN" "http://www.w3.org/Graphics/SVG/1.1/DTD/svg11.dtd"><svg t="1644915672113" class="icon" viewBox="0 0 1024 1024" version="1.1" xmlns="http://www.w3.org/2000/svg" p-id="3377" xmlns:xlink="http://www.w3.org/1999/xlink" width="1024" height="1024"><defs><style type="text/css"></style></defs><path d="M834.92 98.66c49.91 0 90.42 40.51 90.42 90.42v658.75c0 42.8-34.7 77.5-77.5 77.5H189.08c-49.94 0-90.42-40.48-90.42-90.42V189.08c0-49.91 40.51-90.42 90.42-90.42h645.84z m-645.84 51.67c-21.4 0-38.75 17.35-38.75 38.75v645.84c0 21.39 17.36 38.75 38.75 38.75h658.75c14.27 0 25.83-11.57 25.83-25.83V189.08c0-21.4-17.35-38.75-38.75-38.75H189.08z m287.27 331.19l29.86 51.67-34.36 59.57c25.49 33.67 18.87 81.63-14.8 107.12-33.67 25.49-81.63 18.87-107.12-14.8-25.49-33.67-18.87-81.63 14.8-107.12a76.448 76.448 0 0 1 63.72-13.46l47.9-82.98z m-20.51-163.89l2.69 3.82 138.42 239.63c41.31-8.92 82.02 17.35 90.94 58.65s-17.35 82.02-58.65 90.94c-41.31 8.92-82.02-17.35-90.94-58.65a76.53 76.53 0 0 1 14.74-63.56L413.83 347.29c-7.15-12.35-2.94-28.15 9.41-35.3 10.82-6.27 24.57-3.89 32.65 5.65h-0.05zM389.39 626.6c-6.85 11.87-2.78 27.05 9.09 33.89 11.87 6.85 27.05 2.78 33.89-9.09 6.85-11.87 2.78-27.05-9.09-33.89s-27.04-2.78-33.89 9.09z m211.32-12.25c-11.87 6.85-15.94 22.02-9.09 33.89 6.85 11.87 22.02 15.94 33.89 9.09 11.87-6.85 15.94-22.02 9.09-33.89-6.84-11.86-22.02-15.94-33.89-9.09z m0-296.57c10.8 6.22 15.62 19.25 11.47 31l-1.96 4.24-59.31 102.66-29.81-51.67 44.38-76.78c7.13-12.36 22.93-16.59 35.29-9.46h-0.06z" p-id="3378"></path></svg>