<?xml version="1.0" standalone="no"?><!DOCTYPE svg PUBLIC "-//W3C//DTD SVG 1.1//EN" "http://www.w3.org/Graphics/SVG/1.1/DTD/svg11.dtd"><svg t="1644915683452" class="icon" viewBox="0 0 1024 1024" version="1.1" xmlns="http://www.w3.org/2000/svg" p-id="3789" xmlns:xlink="http://www.w3.org/1999/xlink" width="1024" height="1024"><defs><style type="text/css"></style></defs><path d="M755.8 237.16c45.3-1.2 83 34.55 84.2 79.85 0.02 0.73 0.03 1.47 0.03 2.2v387.71c-0.04 45.01-36.53 81.48-81.54 81.48h-268.4c-8.47 0.06-16.72 2.72-23.64 7.6L344.89 896.97a32.913 32.913 0 0 1-26.46 11.31c-4.97-0.11-9.89-1.02-14.57-2.68-16.05-5.59-26.71-20.84-26.46-37.83V796c0.04-4.16-3.31-7.57-7.48-7.6h-123.2c-45.03 0.28-81.77-36-82.05-81.03V319.21c0-45.32 36.74-82.05 82.05-82.05H755.8zM315.43 854.29a20.786 20.786 0 0 0-7.8 7.8l7.8-7.8zM148.89 288.47c-15.78 0-28.63 12.78-28.63 28.57v387.71c0 15.53 12.58 28.12 28.11 28.12h121.49c33.71 0.02 61.02 27.35 61 61.06 0 0.69-0.01 1.39-0.04 2.08v43.71l103.14-85.82a93.955 93.955 0 0 1 54-18.92h265.65c15.53 0 28.12-12.59 28.12-28.12V319.28c0.28-15.53-12.08-28.34-27.6-28.62h-0.52l-604.73-2.11 0.01-0.08z m728.9-172.79c45.12 0.28 81.54 36.94 81.54 82.05v344.45c-1.14 44.29-37.24 79.68-81.54 79.94v-54c15.53 0 28.12-12.59 28.12-28.12V197.79c0.28-15.53-12.08-28.34-27.6-28.62H289.87c-15.53 0-28.12 12.58-28.12 28.11v0.52h-54c-0.04-45.32 36.67-82.08 81.99-82.12h588.05z" p-id="3790"></path></svg>