<?xml version="1.0" standalone="no"?><!DOCTYPE svg PUBLIC "-//W3C//DTD SVG 1.1//EN" "http://www.w3.org/Graphics/SVG/1.1/DTD/svg11.dtd"><svg t="1644915675887" class="icon" viewBox="0 0 1024 1024" version="1.1" xmlns="http://www.w3.org/2000/svg" p-id="3514" xmlns:xlink="http://www.w3.org/1999/xlink" width="1024" height="1024"><defs><style type="text/css"></style></defs><path d="M942.5 887.35H149c-17.5 0-31.7-14.2-31.7-31.7v-631.9c0-17.5 14.2-31.7 31.7-31.7s31.7 14.2 31.7 31.7v600.3h761.9c17.5 0 31.7 14.2 31.7 31.7s-14.3 31.6-31.8 31.6z" p-id="3515"></path><path d="M384.6 790.95H267.9c-17.5 0-31.7-14.2-31.7-31.7v-384c0-17.5 14.2-31.7 31.7-31.7h116.7c17.5 0 31.7 14.2 31.7 31.7v384c0 17.5-14.2 31.7-31.7 31.7z m-85-63.3H353v-320.6h-53.4v320.6z m312.4 63.3H495.2c-17.5 0-31.7-14.2-31.7-31.7v-526.4c0-17.5 14.2-31.7 31.7-31.7H612c17.5 0 31.7 14.2 31.7 31.7v526.4c-0.1 17.5-14.2 31.7-31.7 31.7z m-85.1-63.3h53.4v-463.1h-53.4v463.1z m312.4 63.3H722.6c-17.5 0-31.7-14.2-31.7-31.7v-296.6c0-17.5 14.2-31.7 31.7-31.7h116.7c17.5 0 31.7 14.2 31.7 31.7v296.7c0 17.4-14.2 31.6-31.7 31.6z m-85.1-63.3h53.4v-233.3h-53.4v233.3z m-532.1-456.5c-8.1 0-16.2-3.1-22.4-9.3l-48.7-48.7-47.2 47.2c-12.4 12.4-32.4 12.4-44.8 0-12.4-12.4-12.4-32.4 0-44.8l69.6-69.6c12.4-12.4 32.4-12.4 44.8 0l71.1 71.1c12.4 12.4 12.4 32.4 0 44.8-6.2 6.2-14.3 9.3-22.4 9.3z" p-id="3516"></path></svg>