<?xml version="1.0" standalone="no"?><!DOCTYPE svg PUBLIC "-//W3C//DTD SVG 1.1//EN" "http://www.w3.org/Graphics/SVG/1.1/DTD/svg11.dtd"><svg t="1644915641628" class="icon" viewBox="0 0 1024 1024" version="1.1" xmlns="http://www.w3.org/2000/svg" p-id="2276" xmlns:xlink="http://www.w3.org/1999/xlink" width="1024" height="1024"><defs><style type="text/css"></style></defs><path d="M228.53 98.23c38.08 0 68.92 30.9 68.92 68.98v2.85h429.03v68.98H297.46v4.84c0 38.08-30.85 68.92-68.92 68.92h-15.37v398.4h15.37c38.08 0 68.92 30.9 68.92 68.98v4.72h429.03v68.98H297.46v2.9c0 38.13-30.85 68.98-68.92 68.98h-76.66c-38.08 0-68.92-30.9-68.92-68.98v-76.61c0-38.13 30.85-68.98 68.92-68.98h-7.63V312.8h7.63c-38.08 0-68.92-30.85-68.92-68.92v-76.66c0-38.13 30.85-68.98 68.92-68.98h76.65zM795.47 312.8c-38.08 0-68.92-30.9-68.92-68.98v-76.61c0-38.13 30.85-68.98 68.92-68.98h76.61c38.13 0 68.98 30.9 68.98 68.98v76.61c0 38.08-30.9 68.92-68.98 68.92h7.68v398.41h-7.68c38.13 0 68.98 30.9 68.98 68.98v76.61c0 38.13-30.9 68.98-68.98 68.98h-76.61c-38.08 0-68.92-30.9-68.92-68.98v-76.61c0-38.13 30.85-68.98 68.92-68.98h15.31V312.74h-15.31v0.06zM228.53 780.07h-76.66v76.66h76.66v-76.66z m643.54 0h-76.61v76.66h76.61v-76.66zM630.75 354.91c19.03 0.77 33.83 16.83 33.06 35.86-0.73 17.95-15.11 32.33-33.06 33.06h-84.8v237.51c-1.09 19.02-17.4 33.55-36.41 32.45-17.49-1.01-31.45-14.96-32.45-32.45l-0.11-237.51h-83.72c-19.03-0.77-33.83-16.83-33.06-35.86 0.73-17.95 15.11-32.33 33.06-33.06h237.49z m-402.22-187.7h-76.66v76.61h76.66v-76.61z m643.54 0h-76.61v76.61h76.61v-76.61z" p-id="2277"></path></svg>