<?xml version="1.0" standalone="no"?><!DOCTYPE svg PUBLIC "-//W3C//DTD SVG 1.1//EN" "http://www.w3.org/Graphics/SVG/1.1/DTD/svg11.dtd"><svg t="1644915605534" class="icon" viewBox="0 0 1024 1024" version="1.1" xmlns="http://www.w3.org/2000/svg" p-id="1316" xmlns:xlink="http://www.w3.org/1999/xlink" width="1024" height="1024"><defs><style type="text/css"></style></defs><path d="M174 136.29l-78 13.75v723.92l78 13.75 416 73.35 78 13.75V49.18l-78 13.75-416 73.36z m416 745.57l-416-73.35V215.49l416-73.35v739.72zM837 115.5H707v78h130c7.05 0 13 5.95 13 13v611c0 7.05-5.95 13-13 13H707v78h130c50.18 0 91-40.83 91-91v-611c0-50.17-40.83-91-91-91z" p-id="1317"></path><path d="M290.08 659.07L382 567.15l91.92 91.92 55.15-55.15L437.16 512l91.92-91.93-55.15-55.15L382 456.85l-91.92-91.92-55.15 55.15L326.85 512l-91.92 91.93 55.15 55.14z" p-id="1318"></path></svg>