<?xml version="1.0" standalone="no"?><!DOCTYPE svg PUBLIC "-//W3C//DTD SVG 1.1//EN" "http://www.w3.org/Graphics/SVG/1.1/DTD/svg11.dtd"><svg t="1644915654123" class="icon" viewBox="0 0 1024 1024" version="1.1" xmlns="http://www.w3.org/2000/svg" p-id="2689" xmlns:xlink="http://www.w3.org/1999/xlink" width="1024" height="1024"><defs><style type="text/css"></style></defs><path d="M559.2 416.88c-14.21 14.3-14.15 33.31 0.16 47.52 52.44 52.1 52.72 137.63 0.62 190.07L417.89 797.48c-52.1 52.44-137.63 52.72-190.07 0.62s-52.72-137.63-0.62-190.07l71.04-71.51c14.21-14.3 14.15-33.31-0.16-47.52-14.3-14.21-33.31-14.15-47.52 0.16l-71.04 71.51c-80.52 81.04-80.11 204.59 0.93 285.1s204.59 80.11 285.1-0.93l142.09-143.02c80.52-81.04 80.11-204.59-0.93-285.1-14.3-14.21-33.31-14.14-47.51 0.16z" p-id="2690"></path><path d="M558.42 179.29L416.33 322.31c-80.52 81.04-80.11 204.59 0.93 285.1 14.3 14.21 33.31 14.15 47.52-0.16 14.21-14.3 14.15-33.31-0.16-47.52-52.44-52.1-52.72-137.63-0.62-190.07l142.09-143.02c52.1-52.44 137.63-52.72 190.07-0.62s52.72 137.63 0.62 190.07l-71.04 71.51c-14.21 14.3-14.15 33.31 0.16 47.52 14.3 14.21 33.31 14.15 47.52-0.16l71.04-71.51c80.52-81.04 80.11-204.59-0.93-285.1s-204.6-80.1-285.11 0.94z" p-id="2691"></path></svg>