<?xml version="1.0" encoding="utf-8"?>
<!-- Generator: Adobe Illustrator 26.0.0, SVG Export Plug-In . SVG Version: 6.00 Build 0)  -->
<svg version="1.1" id="图层_1" xmlns="http://www.w3.org/2000/svg" xmlns:xlink="http://www.w3.org/1999/xlink" x="0px" y="0px"
	 viewBox="0 0 1024 1024" style="enable-background:new 0 0 1024 1024;" xml:space="preserve">
<style type="text/css">
	.st0{fill:#FFFFFF;stroke:#999999;stroke-width:30;stroke-miterlimit:10;}
	.st1{display:none;fill:none;}
	.st2{display:none;}
	.st3{display:inline;}
	.st4{display:inline;fill:#333333;}
	.st5{display:inline;fill:#353535;}
	.st6{display:none;fill:#FFFFFF;fill-opacity:0.01;}
	.st7{display:none;fill:#333333;}
</style>
<path class="st0" d="M769.1,362.33"/>
<path class="st1" d="M183.21,335.83V844.5h635.83V335.83L501.13,81.5L183.21,335.83z"/>
<g class="st2">
	<path class="st3" d="M968.68,506.57L538.27,76.16c-0.11-0.11-0.21-0.21-0.32-0.32c-14.53-14.36-37.95-14.21-52.3,0.32L55.22,506.57
		c-14.65,14.4-14.4,37.98,0,52.62s37.98,14.65,52.62,0l58.75-58.75V921.6c0,20.6,16.63,37.23,37.23,37.23h616.09
		c20.6,0,37.23-16.63,37.48-37.23V500.54l58.66,58.66c7.2,7.2,16.88,10.92,26.31,10.92c9.68,0,19.11-3.48,26.31-10.92
		C983.33,544.8,983.33,521.22,968.68,506.57z M782.93,884.37H241.07V425.98l270.89-270.89l270.98,270.98V884.37z"/>
	<polygon class="st3" points="512,698.2 512,698.2 512,698.2 	"/>
	<path class="st3" d="M375.48,561.68c0.14,75.34,61.18,136.39,136.52,136.52c75.21,0,136.52-61.31,136.52-136.52
		S587.21,425.16,512,425.16S375.48,486.47,375.48,561.68z M512,499.62L512,499.62c34.25,0.01,62.02,27.78,62.03,62.03
		c0.01,34.27-27.76,62.07-62.03,62.08c-34.27,0-62.06-27.78-62.06-62.06C449.94,527.41,477.73,499.62,512,499.62z"/>
</g>
<path class="st2" d="M653.45,87.67v282.89H547.36v117.87h318.25v188.59h94.3v259.31H700.59V677.02h94.3V559.15H229.11v117.87h94.3
	v259.31H64.09V677.02h94.3V488.43h318.25V370.56H370.56V87.67C370.56,87.67,653.45,87.67,653.45,87.67z M252.69,747.74H134.81
	v117.87h117.87V747.74z M889.19,747.74H771.31v117.87h117.87V747.74z M582.72,158.39H441.28v141.44h141.44V158.39L582.72,158.39z"/>
<path class="st2" d="M65.67,134.33v755.33h892.67V134.33H65.67z M397.57,563.71V392.04h206v171.67H397.57z M603.57,632.37V821h-206
	V632.37H603.57z M134.33,392.04H328.9v171.67H134.33V392.04L134.33,392.04z M672.23,392.04h217.43v171.67H672.23V392.04
	L672.23,392.04z M889.67,203v120.37H134.33V203H889.67z M134.33,632.37H328.9V821H134.33V632.37z M672.23,821V632.37h217.43V821
	H672.23z"/>
<path d="M322,544h256c17.92,0,32-14.08,32-32c0-17.92-14.08-32-32-32H322c-17.92,0-32,14.08-32,32C290,529.92,304.08,544,322,544z
	 M802,96H226c-70.4,0-128,57.6-128,128v576c0,70.4,57.6,128,128,128h576c70.4,0,128-57.6,128-128V224C930,153.6,872.4,96,802,96z
	 M866,800c0,35.2-28.8,64-64,64H226c-35.2,0-64-28.8-64-64V224c0-35.2,28.8-64,64-64h576c35.2,0,64,28.8,64,64V800z M706,288H322
	c-17.92,0-32,14.08-32,32s14.08,32,32,32h384c17.92,0,32-14.08,32-32S723.92,288,706,288z M642,672H322c-17.92,0-32,14.08-32,32l0,0
	c0,17.92,14.08,32,32,32h320c17.92,0,32-14.08,32-32l0,0C674,686.08,659.92,672,642,672z"/>
<g class="st2">
	<path class="st4" d="M63.67,796.4h896v-672h-896V796.4z M119.67,180.4h784v560h-784V180.4z"/>
	<rect x="175.67" y="852.4" class="st4" width="672" height="56"/>
	<polygon class="st4" points="360.13,270 175.33,460.4 360.13,650.8 399.33,606 253.73,460.4 399.33,314.8 	"/>
	<polygon class="st4" points="623.33,314.8 768.93,460.4 623.33,606 662.53,650.8 847.33,460.4 662.53,270 	"/>
	<polygon class="st4" points="428.62,676.44 482.94,690 594.1,244.4 539.78,230.8 	"/>
</g>
<path class="st2" d="M670.3,494.13l-323.5,323.5c-54.37,54.37-126.66,84.31-203.55,84.31C66.36,901.94-5.93,872-60.3,817.63
	s-84.31-126.66-84.31-203.55s29.94-149.18,84.31-203.55L75.14,275.09c75.83-75.83,199.21-75.83,275.04,0s75.83,199.21,0,275.04
	L192.32,708.01c-17.62,17.62-46.19,17.62-63.81,0c-17.62-17.62-17.62-46.19,0-63.81l157.87-157.87
	c40.65-40.65,40.65-106.78,0-147.42c-40.64-40.65-106.78-40.65-147.42,0L3.51,474.35c-77.05,77.05-77.05,202.42,0,279.48
	c77.05,77.05,202.42,77.05,279.48,0l323.5-323.5c77.05-77.05,77.05-202.42,0-279.48c-77.05-77.05-202.42-77.05-279.48,0
	c-17.62,17.62-46.19,17.62-63.81,0s-17.62-46.19,0-63.81C317.57,32.67,389.86,2.72,466.75,2.72c76.89,0,149.18,29.94,203.55,84.31
	c54.37,54.37,84.31,126.66,84.31,203.55C754.61,367.47,724.67,439.76,670.3,494.13z"/>
<g class="st2">
	<path class="st3" d="M559.2,416.88c-14.21,14.3-14.15,33.31,0.16,47.52c52.44,52.1,52.72,137.63,0.62,190.07L417.89,797.48
		c-52.1,52.44-137.63,52.72-190.07,0.62c-52.44-52.1-52.72-137.63-0.62-190.07l71.04-71.51c14.21-14.3,14.15-33.31-0.16-47.52
		c-14.3-14.21-33.31-14.15-47.52,0.16l-71.04,71.51c-80.52,81.04-80.11,204.59,0.93,285.1s204.59,80.11,285.1-0.93l142.09-143.02
		c80.52-81.04,80.11-204.59-0.93-285.1C592.41,402.51,573.4,402.58,559.2,416.88L559.2,416.88z"/>
	<path class="st3" d="M558.42,179.29L416.33,322.31c-80.52,81.04-80.11,204.59,0.93,285.1c14.3,14.21,33.31,14.15,47.52-0.16
		c14.21-14.3,14.15-33.31-0.16-47.52c-52.44-52.1-52.72-137.63-0.62-190.07l142.09-143.02c52.1-52.44,137.63-52.72,190.07-0.62
		c52.44,52.1,52.72,137.63,0.62,190.07l-71.04,71.51c-14.21,14.3-14.15,33.31,0.16,47.52c14.3,14.21,33.31,14.15,47.52-0.16
		l71.04-71.51c80.52-81.04,80.11-204.59-0.93-285.1S638.93,98.25,558.42,179.29L558.42,179.29z"/>
</g>
<path class="st2" d="M368.61,479.69H125.25c-33.32,0-60.59-27.26-60.59-60.59V175.74c0-33.32,27.26-60.59,60.59-60.59h243.86
	c33.32,0,60.59,27.26,60.59,60.59V419.6C429.2,452.93,402.44,479.69,368.61,479.69L368.61,479.69z M125.25,175.74V419.6h243.86
	V175.74H125.25z M726.58,530.18c-16.16,0-31.3-6.06-42.92-17.67L511.5,340.34c-11.61-11.61-17.67-26.76-17.67-42.92
	s6.06-31.3,17.67-42.92L683.66,82.34c11.61-11.61,26.76-17.67,42.92-17.67c16.16,0,31.3,6.06,42.92,17.67l172.17,172.17
	c11.61,11.61,17.67,26.76,17.67,42.92s-6.06,31.3-17.67,42.92L769.49,512.5C757.88,524.12,742.74,530.18,726.58,530.18
	L726.58,530.18z M726.58,124.75L554.41,296.92l172.17,172.17l172.17-172.17L726.58,124.75L726.58,124.75z M368.61,959.33H125.25
	c-33.32,0-60.59-27.26-60.59-60.59V654.88c0-33.32,27.26-60.59,60.59-60.59h243.86c33.32,0,60.59,27.26,60.59,60.59v243.86
	C429.2,932.57,402.44,959.33,368.61,959.33z M125.25,655.39v243.86h243.86V655.39H125.25z M848.26,959.33H604.4
	c-33.32,0-60.59-27.26-60.59-60.59V654.88c0-33.32,27.26-60.59,60.59-60.59h243.86c33.32,0,60.59,27.26,60.59,60.59v243.86
	C908.84,932.57,882.09,959.33,848.26,959.33z M604.9,655.39v243.86h243.86V655.39H604.9z"/>
<g class="st2">
	<path class="st5" d="M511.95,129.74c211.11,0.03,382.23,171.2,382.2,382.31c-0.02,101.33-40.26,198.51-111.9,270.18
		c-147.1,151.43-389.11,154.93-540.53,7.83s-154.93-389.11-7.83-540.53c2.57-2.65,5.18-5.26,7.83-7.83
		C313.23,169.79,410.54,129.48,511.95,129.74 M511.95,63.66C264.34,63.68,63.63,264.42,63.65,512.03s200.76,448.32,448.37,448.31
		c247.61,0,448.34-200.73,448.34-448.34S759.63,63.66,512.02,63.66L511.95,63.66z"/>
	<path class="st5" d="M512.03,455.38c-31.27,0-56.62,25.35-56.62,56.62s25.35,56.62,56.62,56.62s56.62-25.35,56.62-56.62
		S543.3,455.38,512.03,455.38z M313.78,455.38c-31.27,0-56.62,25.35-56.62,56.62s25.35,56.62,56.62,56.62S370.4,543.27,370.4,512
		S345.05,455.38,313.78,455.38z M710.28,455.38c-31.27-0.02-56.63,25.32-56.65,56.59s25.32,56.63,56.59,56.65
		c31.27,0,56.62-25.35,56.62-56.62s-25.35-56.62-56.62-56.62H710.28z"/>
</g>
<path class="st2" d="M252.66,315.2c-65.6,0-118.4-52.8-118.4-118.4s52.8-118.4,118.4-118.4c51.2,0,96,33.6,112,78.4h382.4
	c108.8,0,196.8,88,196.8,196.8s-88,196.8-196.8,196.8h-86.4c-16,48-60.8,78.4-112,78.4c-49.6,0-94.4-32-112-78.4h-124.8
	c-65.6,0-118.4,52.8-118.4,118.4s52.8,118.4,118.4,118.4h382.4c17.6-48,60.8-78.4,112-78.4c65.6,0,118.4,52.8,118.4,118.4
	s-52.8,118.4-118.4,118.4c-49.6,0-94.4-32-112-78.4h-380.8c-108.8,0-196.8-88-196.8-196.8s88-196.8,196.8-196.8h124.8
	c16-48,60.8-78.4,112-78.4c49.6,0,94.4,32,112,78.4h86.4c65.6,0,118.4-52.8,118.4-118.4s-52.8-118.4-118.4-118.4h-384
	C348.66,283.2,303.86,315.2,252.66,315.2L252.66,315.2z M806.26,790.4c-22.4,0-38.4,19.2-38.4,41.6c0,20.8,17.6,36.8,38.4,38.4
	c22.4,0,38.4-19.2,38.4-41.6C844.66,806.4,827.06,790.4,806.26,790.4z M550.26,473.6c-22.4,0-38.4,19.2-38.4,41.6
	c0,20.8,17.6,36.8,38.4,38.4c22.4,0,38.4-19.2,38.4-41.6C587.06,491.2,571.06,473.6,550.26,473.6L550.26,473.6z M252.66,156.8
	c-22.4,1.6-38.4,19.2-36.8,41.6c1.6,20.8,17.6,36.8,36.8,36.8c22.4-1.6,38.4-19.2,36.8-41.6C289.46,174.4,273.46,158.4,252.66,156.8
	L252.66,156.8z"/>
<path class="st2" d="M291.5,925.2c-22.1,0-40-17.9-40-40V721.6H128.8c-16.6,0-30-13.4-30-30V384.8c0-59.5,48.3-107.8,107.8-107.8
	h44.9V138.8c0-22.1,17.9-40,40-40h441c22.1,0,40,17.9,40,40V277h44.9c59.5,0,107.8,48.3,107.8,107.8v306.8c0,16.6-13.4,30-30,30
	H772.5v163.6c0,22.1-17.9,40-40,40L291.5,925.2L291.5,925.2z M709.6,862.3v-217H314.4v217H709.6z M862.3,658.7V384.8
	c0-24.8-20.1-44.9-44.9-44.9H206.6c-24.8,0-44.9,20.1-44.9,44.9v273.9h89.8v-70.3c0-3.3,2.7-6,6-6h509c3.3,0,6,2.7,6,6v70.3H862.3z
	 M709.6,277V161.7H314.4V277H709.6z M283,467.1c-17.3,0-31.4-14.1-31.4-31.4s14.1-31.4,31.4-31.4h229c17.3,0,31.4,14.1,31.4,31.4
	s-14.1,31.4-31.4,31.4H283z"/>
<g class="st2">
	<path class="st3" d="M174,136.29l-78,13.75v723.92l78,13.75l416,73.35l78,13.75V49.18l-78,13.75L174,136.29L174,136.29z
		 M590,881.86l-416-73.35V215.49l416-73.35V881.86L590,881.86z M837,115.5H707v78h130c7.05,0,13,5.95,13,13V817.5
		c0,7.05-5.95,13-13,13H707v78h130c50.18,0,91-40.83,91-91V206.5C928,156.33,887.17,115.5,837,115.5z"/>
	<path class="st3" d="M290.08,659.07L382,567.15l91.92,91.92l55.15-55.15L437.16,512l91.92-91.93l-55.15-55.15L382,456.85
		l-91.92-91.92l-55.15,55.15L326.85,512l-91.92,91.93L290.08,659.07z"/>
</g>
<path class="st2" d="M473.73,864.02l-0.13,1.41c0,18.81,13.63,34.85,32.19,37.89l6.21,0.51c21.21,0.01,38.41-17.17,38.43-38.37
	c0-0.48-0.01-0.96-0.03-1.43H608c-0.03,53.02-43.03,95.98-96.05,95.95c-49.41-0.02-90.74-37.55-95.5-86.74l-0.45-9.22H473.73z
	 M545.28,64.02v65.73C708.24,146.79,832,284.17,832,448.02v319.94l64,0.06v64l-64-0.06v0.06H192v-0.06l-64,0.06v-64l64-0.06V448.02
	c-0.01-164.27,124.37-301.87,287.81-318.4l0.06-65.6H545.28z M512,192.02c-141.38,0-256,114.62-256,256v319.94h512V448.02
	C768,306.64,653.38,192.02,512,192.02z"/>
<path class="st2" d="M755.8,237.16c45.3-1.2,83,34.55,84.2,79.85c0.02,0.73,0.03,1.47,0.03,2.2v387.71
	c-0.04,45.01-36.53,81.48-81.54,81.48h-268.4c-8.47,0.06-16.72,2.72-23.64,7.6L344.89,896.97c-6.62,7.63-16.37,11.8-26.46,11.31
	c-4.97-0.11-9.89-1.02-14.57-2.68c-16.05-5.59-26.71-20.84-26.46-37.83v-71.77c0.04-4.16-3.31-7.57-7.48-7.6c-0.02,0-0.04,0-0.06,0
	H146.72c-45.03,0.28-81.77-36-82.05-81.03c0-0.15,0-0.3,0-0.45V319.21c0-45.32,36.74-82.05,82.05-82.05l0,0h609.01L755.8,237.16z
	 M315.43,854.29c-3.25,1.85-5.95,4.54-7.8,7.8L315.43,854.29z M148.89,288.47c-15.78,0-28.63,12.78-28.63,28.57v387.71
	c0,15.53,12.58,28.12,28.11,28.12c0.17,0,0.34,0,0.52,0h120.97c33.71,0.02,61.02,27.35,61,61.06c0,0.69-0.01,1.39-0.04,2.08v43.71
	l103.14-85.82c15.6-11.77,34.47-18.38,54-18.92h265.65c15.53,0,28.12-12.59,28.12-28.12l0,0V319.28
	c0.28-15.53-12.08-28.34-27.6-28.62c-0.17,0-0.34,0-0.52,0l-604.73-2.11L148.89,288.47z M877.79,115.68
	c45.12,0.28,81.54,36.94,81.54,82.05v344.45c-1.14,44.29-37.24,79.68-81.54,79.94v-54c15.53,0,28.12-12.59,28.12-28.12V197.79
	c0.28-15.53-12.08-28.34-27.6-28.62c-0.17,0-0.34,0-0.52,0H289.87c-15.53,0-28.12,12.58-28.12,28.11c0,0.17,0,0.34,0,0.52h-54
	c-0.04-45.32,36.67-82.08,81.99-82.12c0.02,0,0.04,0,0.06,0H877.79z"/>
<g class="st2">
	<path class="st3" d="M512,64.67C264.93,64.67,64.67,264.93,64.67,512S264.93,959.33,512,959.33S959.33,759.07,959.33,512
		S759.07,64.67,512,64.67z M512,890.51c-208.7,0-378.51-169.81-378.51-378.51S303.3,133.49,512,133.49S890.51,303.3,890.51,512
		S720.73,890.51,512,890.51z"/>
	<path class="st3" d="M682.3,485.85L459.15,316.03L456.5,314c-5.99-5.09-13.49-8.5-21.95-8.5c-18.99,0-34.41,15.42-34.41,34.41
		v344.1c0,18.99,15.42,34.41,34.41,34.41c8.46,0,15.97-3.41,21.95-8.5l2.65-2.03L682.3,538.08l3.06-2.31
		c5.99-6.19,9.74-14.56,9.74-23.85s-3.75-17.65-9.74-23.85L682.3,485.85z"/>
</g>
<path class="st2" d="M301.54,306.24c0-53.8-35.82-99.53-85.08-113.88v-94.6c0-18.38-15.22-33.63-33.58-33.63
	s-33.58,15.24-33.58,33.63v94.6c-49.26,14.35-85.08,60.08-85.08,113.88s36.27,99.53,85.53,113.88l1.34,183.82
	c-50.15,14.35-86.87,60.08-86.87,114.78c0,53.8,35.82,99.53,85.08,113.88v92.36c0,18.38,15.22,33.63,33.58,33.63
	s33.58-15.24,33.58-33.63V832.6c49.26-14.35,85.08-60.08,85.08-113.88c0-53.35-34.93-98.19-83.29-113.43l-1.34-185.17
	C265.72,405.33,301.54,360.04,301.54,306.24z M131.38,306.24c0-28.25,23.28-51.56,51.5-51.56s51.5,23.31,51.5,51.56
	c0,28.25-23.28,51.56-51.5,51.56S131.38,334.49,131.38,306.24L131.38,306.24z M234.37,718.72c0,28.25-23.28,51.56-51.5,51.56
	s-51.5-23.31-51.5-51.56c0-28.25,23.28-51.56,51.5-51.56C211.09,667.16,234.37,690.48,234.37,718.72z M872.47,149.32H438.11
	c-48.36,0-87.32,39.01-87.32,87.43v138.99c0,48.42,38.96,87.43,87.32,87.43h434.35c48.36,0,87.32-39.01,87.32-87.43V236.75
	C959.79,188.32,920.83,149.32,872.47,149.32L872.47,149.32z M892.62,375.73c0,11.21-8.96,20.18-20.15,20.18H438.11
	c-11.19,0-20.15-8.97-20.15-20.18V236.75c0-11.21,8.96-20.18,20.15-20.18h434.35c11.19,0,20.15,8.97,20.15,20.18L892.62,375.73
	L892.62,375.73z M872.47,561.8H438.11c-48.36,0-87.32,39.01-87.32,87.43v138.99c0,48.42,38.96,87.43,87.32,87.43h434.35
	c48.36,0,87.32-39.01,87.32-87.43V649.23C959.79,600.81,920.83,561.8,872.47,561.8L872.47,561.8z M892.62,788.22
	c0,11.21-8.96,20.18-20.15,20.18H438.11c-11.19,0-20.15-8.97-20.15-20.18V649.23c0-11.21,8.96-20.18,20.15-20.18h434.35
	c11.19,0,20.15,8.97,20.15,20.18V788.22z"/>
<path class="st6" d="M-207-59.67H817v1024H-207V-59.67z"/>
<path class="st7" d="M834.92,98.66c49.91,0,90.42,40.51,90.42,90.42v658.75c0,42.8-34.7,77.5-77.5,77.5H189.08
	c-49.94,0-90.42-40.48-90.42-90.42V189.08c0-49.91,40.51-90.42,90.42-90.42H834.92z M189.08,150.33c-21.4,0-38.75,17.35-38.75,38.75
	v645.84c0,21.39,17.36,38.75,38.75,38.75h658.75c14.27,0,25.83-11.57,25.83-25.83l0,0V189.08c0-21.4-17.35-38.75-38.75-38.75l0,0
	H189.08z M476.35,481.52l29.86,51.67l-34.36,59.57c25.49,33.67,18.87,81.63-14.8,107.12c-33.67,25.49-81.63,18.87-107.12-14.8
	c-25.49-33.67-18.87-81.63,14.8-107.12c18.17-13.76,41.54-18.7,63.72-13.46L476.35,481.52L476.35,481.52z M455.84,317.63l2.69,3.82
	l138.42,239.63c41.31-8.92,82.02,17.35,90.94,58.65s-17.35,82.02-58.65,90.94c-41.31,8.92-82.02-17.35-90.94-58.65
	c-4.82-22.32,0.59-45.63,14.74-63.56L413.83,347.29c-7.15-12.35-2.94-28.15,9.41-35.3c10.82-6.27,24.57-3.89,32.65,5.65H455.84z
	 M389.39,626.6c-6.85,11.87-2.78,27.05,9.09,33.89c11.87,6.85,27.05,2.78,33.89-9.09c6.85-11.87,2.78-27.05-9.09-33.89
	S396.24,614.73,389.39,626.6L389.39,626.6z M600.71,614.35c-11.87,6.85-15.94,22.02-9.09,33.89c6.85,11.87,22.02,15.94,33.89,9.09
	c11.87-6.85,15.94-22.02,9.09-33.89C627.76,611.58,612.58,607.5,600.71,614.35L600.71,614.35z M600.71,317.78
	c10.8,6.22,15.62,19.25,11.47,31l-1.96,4.24l-59.31,102.66l-29.81-51.67l44.38-76.78c7.13-12.36,22.93-16.59,35.29-9.46H600.71z"/>
<path class="st2" d="M228.53,98.23c38.08,0,68.92,30.9,68.92,68.98v2.85h429.03v68.98H297.46v4.84c0,38.08-30.85,68.92-68.92,68.92
	h-15.37V711.2h15.37c38.08,0,68.92,30.9,68.92,68.98v4.72h429.03v68.98H297.46v2.9c0,38.13-30.85,68.98-68.92,68.98h-76.66
	c-38.08,0-68.92-30.9-68.92-68.98v-76.61c0-38.13,30.85-68.98,68.92-68.98h-7.63V312.8h7.63c-38.08,0-68.92-30.85-68.92-68.92
	v-76.66c0-38.13,30.85-68.98,68.92-68.98H228.53z M795.47,312.8c-38.08,0-68.92-30.9-68.92-68.98v-76.61
	c0-38.13,30.85-68.98,68.92-68.98h76.61c38.13,0,68.98,30.9,68.98,68.98v76.61c0,38.08-30.9,68.92-68.98,68.92h7.68v398.41h-7.68
	c38.13,0,68.98,30.9,68.98,68.98v76.61c0,38.13-30.9,68.98-68.98,68.98h-76.61c-38.08,0-68.92-30.9-68.92-68.98v-76.61
	c0-38.13,30.85-68.98,68.92-68.98h15.31V312.74h-15.31V312.8z M228.53,780.07h-76.66v76.66h76.66v-76.61L228.53,780.07z
	 M872.07,780.07h-76.61v76.66h76.61v-76.61V780.07z M630.75,354.91c19.03,0.77,33.83,16.83,33.06,35.86
	c-0.73,17.95-15.11,32.33-33.06,33.06h-84.8v237.51c-1.09,19.02-17.4,33.55-36.41,32.45c-17.49-1.01-31.45-14.96-32.45-32.45
	l-0.11-237.51h-83.72c-19.03-0.77-33.83-16.83-33.06-35.86c0.73-17.95,15.11-32.33,33.06-33.06H630.75L630.75,354.91z
	 M228.53,167.21h-76.66v76.61h76.66V167.21z M872.07,167.21h-76.61v76.61h76.61V167.21z"/>
<path class="st2" d="M715.65,191.02c112.47,112.47,112.47,294.83,0,407.3L673.92,640h220.82l87.59,277.33H41.66L129.26,640h220.8
	l-41.71-41.69c-112.47-112.47-112.47-294.83,0-407.3S603.18,78.55,715.65,191.02L715.65,191.02z M414.04,704H176.17L129,853.33H895
	L847.85,704H609.92L512,801.96L414.04,704z M353.6,236.27c-87.47,87.47-87.47,229.33,0,316.8L512,711.45l158.4-158.38
	c87.47-87.47,87.47-229.33,0-316.8S441.07,148.8,353.6,236.27L353.6,236.27z M512,277.33c64.8-0.02,117.35,52.49,117.37,117.3
	c0.02,64.8-52.49,117.35-117.3,117.37c-0.03,0-0.05,0-0.08,0c-64.8,0-117.33-52.53-117.33-117.33S447.2,277.33,512,277.33
	L512,277.33z M512,341.33c-29.46-0.01-53.34,23.86-53.35,53.31c-0.01,29.46,23.86,53.34,53.31,53.35c0.01,0,0.03,0,0.04,0
	c29.46-0.01,53.32-23.9,53.31-53.35C565.3,365.21,541.44,341.34,512,341.33z"/>
<g class="st2">
	<path class="st3" d="M942.5,887.35H149c-17.5,0-31.7-14.2-31.7-31.7v-631.9c0-17.5,14.2-31.7,31.7-31.7s31.7,14.2,31.7,31.7v600.3
		h761.9c17.5,0,31.7,14.2,31.7,31.7S960,887.35,942.5,887.35L942.5,887.35z"/>
	<path class="st3" d="M384.6,790.95H267.9c-17.5,0-31.7-14.2-31.7-31.7v-384c0-17.5,14.2-31.7,31.7-31.7h116.7
		c17.5,0,31.7,14.2,31.7,31.7v384C416.3,776.75,402.1,790.95,384.6,790.95L384.6,790.95z M299.6,727.65H353v-320.6h-53.4V727.65z
		 M612,790.95H495.2c-17.5,0-31.7-14.2-31.7-31.7v-526.4c0-17.5,14.2-31.7,31.7-31.7H612c17.5,0,31.7,14.2,31.7,31.7v526.4
		C643.6,776.75,629.5,790.95,612,790.95L612,790.95z M526.9,727.65h53.4v-463.1h-53.4V727.65z M839.3,790.95H722.6
		c-17.5,0-31.7-14.2-31.7-31.7v-296.6c0-17.5,14.2-31.7,31.7-31.7h116.7c17.5,0,31.7,14.2,31.7,31.7v296.7
		C871,776.75,856.8,790.95,839.3,790.95z M754.2,727.65h53.4v-233.3h-53.4V727.65z M222.1,271.15c-8.1,0-16.2-3.1-22.4-9.3
		l-48.7-48.7l-47.2,47.2c-12.4,12.4-32.4,12.4-44.8,0c-12.4-12.4-12.4-32.4,0-44.8l69.6-69.6c12.4-12.4,32.4-12.4,44.8,0l71.1,71.1
		c12.4,12.4,12.4,32.4,0,44.8C238.3,268.05,230.2,271.15,222.1,271.15z"/>
</g>
</svg>
