<?xml version="1.0" standalone="no"?><!DOCTYPE svg PUBLIC "-//W3C//DTD SVG 1.1//EN" "http://www.w3.org/Graphics/SVG/1.1/DTD/svg11.dtd"><svg t="1644915650598" class="icon" viewBox="0 0 1024 1024" version="1.1" xmlns="http://www.w3.org/2000/svg" p-id="2551" xmlns:xlink="http://www.w3.org/1999/xlink" width="1024" height="1024"><defs><style type="text/css"></style></defs><path d="M968.68 506.57L538.27 76.16l-0.32-0.32c-14.53-14.36-37.95-14.21-52.3 0.32L55.22 506.57c-14.65 14.4-14.4 37.98 0 52.62s37.98 14.65 52.62 0l58.75-58.75V921.6c0 20.6 16.63 37.23 37.23 37.23h616.09c20.6 0 37.23-16.63 37.48-37.23V500.54l58.66 58.66c7.2 7.2 16.88 10.92 26.31 10.92 9.68 0 19.11-3.48 26.31-10.92 14.66-14.4 14.66-37.98 0.01-52.63z m-185.75 377.8H241.07V425.98l270.89-270.89 270.98 270.98v458.3zM512 698.2z" p-id="2552"></path><path d="M375.48 561.68c0.14 75.34 61.18 136.39 136.52 136.52 75.21 0 136.52-61.31 136.52-136.52S587.21 425.16 512 425.16s-136.52 61.31-136.52 136.52zM512 499.62c34.25 0.01 62.02 27.78 62.03 62.03 0.01 34.27-27.76 62.07-62.03 62.08-34.27 0-62.06-27.78-62.06-62.06 0-34.26 27.79-62.05 62.06-62.05z" p-id="2553"></path></svg>