<?xml version="1.0" standalone="no"?><!DOCTYPE svg PUBLIC "-//W3C//DTD SVG 1.1//EN" "http://www.w3.org/Graphics/SVG/1.1/DTD/svg11.dtd"><svg t="1644915634784" class="icon" viewBox="0 0 1024 1024" version="1.1" xmlns="http://www.w3.org/2000/svg" p-id="2002" xmlns:xlink="http://www.w3.org/1999/xlink" width="1024" height="1024"><defs><style type="text/css"></style></defs><path d="M715.65 191.02c112.47 112.47 112.47 294.83 0 407.3L673.92 640h220.82l87.59 277.33H41.66L129.26 640h220.8l-41.71-41.69c-112.47-112.47-112.47-294.83 0-407.3s294.83-112.46 407.3 0.01zM414.04 704H176.17L129 853.33h766L847.85 704H609.92L512 801.96 414.04 704zM353.6 236.27c-87.47 87.47-87.47 229.33 0 316.8L512 711.45l158.4-158.38c87.47-87.47 87.47-229.33 0-316.8s-229.33-87.47-316.8 0zM512 277.33c64.8-0.02 117.35 52.49 117.37 117.3 0.02 64.8-52.49 117.35-117.3 117.37h-0.08c-64.8 0-117.33-52.53-117.33-117.33S447.2 277.33 512 277.33z m0 64c-29.46-0.01-53.34 23.86-53.35 53.31-0.01 29.46 23.86 53.34 53.31 53.35h0.04c29.46-0.01 53.32-23.9 53.31-53.35-0.01-29.43-23.87-53.3-53.31-53.31z" p-id="2003"></path></svg>