<?xml version="1.0" standalone="no"?><!DOCTYPE svg PUBLIC "-//W3C//DTD SVG 1.1//EN" "http://www.w3.org/Graphics/SVG/1.1/DTD/svg11.dtd"><svg t="1644915623317" class="icon" viewBox="0 0 1024 1024" version="1.1" xmlns="http://www.w3.org/2000/svg" p-id="1591" xmlns:xlink="http://www.w3.org/1999/xlink" width="1024" height="1024"><defs><style type="text/css"></style></defs><path d="M368.61 479.69H125.25c-33.32 0-60.59-27.26-60.59-60.59V175.74c0-33.32 27.26-60.59 60.59-60.59h243.86c33.32 0 60.59 27.26 60.59 60.59V419.6c-0.5 33.33-27.26 60.09-61.09 60.09zM125.25 175.74V419.6h243.86V175.74H125.25z m601.33 354.44c-16.16 0-31.3-6.06-42.92-17.67L511.5 340.34c-11.61-11.61-17.67-26.76-17.67-42.92s6.06-31.3 17.67-42.92L683.66 82.34c11.61-11.61 26.76-17.67 42.92-17.67s31.3 6.06 42.92 17.67l172.17 172.17c11.61 11.61 17.67 26.76 17.67 42.92s-6.06 31.3-17.67 42.92L769.49 512.5c-11.61 11.62-26.75 17.68-42.91 17.68z m0-405.43L554.41 296.92l172.17 172.17 172.17-172.17-172.17-172.17zM368.61 959.33H125.25c-33.32 0-60.59-27.26-60.59-60.59V654.88c0-33.32 27.26-60.59 60.59-60.59h243.86c33.32 0 60.59 27.26 60.59 60.59v243.86c-0.5 33.83-27.26 60.59-61.09 60.59zM125.25 655.39v243.86h243.86V655.39H125.25z m723.01 303.94H604.4c-33.32 0-60.59-27.26-60.59-60.59V654.88c0-33.32 27.26-60.59 60.59-60.59h243.86c33.32 0 60.59 27.26 60.59 60.59v243.86c-0.01 33.83-26.76 60.59-60.59 60.59zM604.9 655.39v243.86h243.86V655.39H604.9z" p-id="1592"></path></svg>