<?xml version="1.0" standalone="no"?><!DOCTYPE svg PUBLIC "-//W3C//DTD SVG 1.1//EN" "http://www.w3.org/Graphics/SVG/1.1/DTD/svg11.dtd"><svg t="1644915664372" class="icon" viewBox="0 0 1024 1024" version="1.1" xmlns="http://www.w3.org/2000/svg" p-id="3102" xmlns:xlink="http://www.w3.org/1999/xlink" width="1024" height="1024"><defs><style type="text/css"></style></defs><path d="M473.73 864.02l-0.13 1.41c0 18.81 13.63 34.85 32.19 37.89l6.21 0.51c21.21 0.01 38.41-17.17 38.43-38.37 0-0.48-0.01-0.96-0.03-1.43H608c-0.03 53.02-43.03 95.98-96.05 95.95-49.41-0.02-90.74-37.55-95.5-86.74l-0.45-9.22h57.73z m71.55-800v65.73C708.24 146.79 832 284.17 832 448.02v319.94l64 0.06v64l-64-0.06v0.06H192v-0.06l-64 0.06v-64l64-0.06V448.02c-0.01-164.27 124.37-301.87 287.81-318.4l0.06-65.6h65.41z m-33.28 128c-141.38 0-256 114.62-256 256v319.94h512V448.02c0-141.38-114.62-256-256-256z" p-id="3103"></path></svg>