<?xml version="1.0" standalone="no"?><!DOCTYPE svg PUBLIC "-//W3C//DTD SVG 1.1//EN" "http://www.w3.org/Graphics/SVG/1.1/DTD/svg11.dtd"><svg t="1644915657735" class="icon" viewBox="0 0 1024 1024" version="1.1" xmlns="http://www.w3.org/2000/svg" p-id="2827" xmlns:xlink="http://www.w3.org/1999/xlink" width="1024" height="1024"><defs><style type="text/css"></style></defs><path d="M511.95 129.74c211.11 0.03 382.23 171.2 382.2 382.31a382.27 382.27 0 0 1-111.9 270.18c-147.1 151.43-389.11 154.93-540.53 7.83s-154.93-389.11-7.83-540.53c2.57-2.65 5.18-5.26 7.83-7.83 71.51-71.91 168.82-112.22 270.23-111.96m0-66.08c-247.61 0.02-448.32 200.76-448.3 448.37s200.76 448.32 448.37 448.31c247.61 0 448.34-200.73 448.34-448.34S759.63 63.66 512.02 63.66h-0.07z" p-id="2828"></path><path d="M512.03 455.38c-31.27 0-56.62 25.35-56.62 56.62s25.35 56.62 56.62 56.62 56.62-25.35 56.62-56.62-25.35-56.62-56.62-56.62z m-198.25 0c-31.27 0-56.62 25.35-56.62 56.62s25.35 56.62 56.62 56.62S370.4 543.27 370.4 512s-25.35-56.62-56.62-56.62z m396.5 0c-31.27-0.02-56.63 25.32-56.65 56.59s25.32 56.63 56.59 56.65c31.27 0 56.62-25.35 56.62-56.62s-25.35-56.62-56.62-56.62h0.06z" p-id="2829"></path></svg>