<?xml version="1.0" standalone="no"?><!DOCTYPE svg PUBLIC "-//W3C//DTD SVG 1.1//EN" "http://www.w3.org/Graphics/SVG/1.1/DTD/svg11.dtd"><svg t="1644915668388" class="icon" viewBox="0 0 1024 1024" version="1.1" xmlns="http://www.w3.org/2000/svg" p-id="3239" xmlns:xlink="http://www.w3.org/1999/xlink" width="1024" height="1024"><defs><style type="text/css"></style></defs><path d="M512 64.67C264.93 64.67 64.67 264.93 64.67 512S264.93 959.33 512 959.33 959.33 759.07 959.33 512 759.07 64.67 512 64.67z m0 825.84c-208.7 0-378.51-169.81-378.51-378.51S303.3 133.49 512 133.49 890.51 303.3 890.51 512 720.73 890.51 512 890.51z" p-id="3240"></path><path d="M682.3 485.85L459.15 316.03 456.5 314c-5.99-5.09-13.49-8.5-21.95-8.5-18.99 0-34.41 15.42-34.41 34.41v344.1c0 18.99 15.42 34.41 34.41 34.41 8.46 0 15.97-3.41 21.95-8.5l2.65-2.03L682.3 538.08l3.06-2.31c5.99-6.19 9.74-14.56 9.74-23.85s-3.75-17.65-9.74-23.85l-3.06-2.22z" p-id="3241"></path></svg>