<?xml version="1.0" standalone="no"?><!DOCTYPE svg PUBLIC "-//W3C//DTD SVG 1.1//EN" "http://www.w3.org/Graphics/SVG/1.1/DTD/svg11.dtd"><svg t="1644915679909" class="icon" viewBox="0 0 1024 1024" version="1.1" xmlns="http://www.w3.org/2000/svg" p-id="3652" xmlns:xlink="http://www.w3.org/1999/xlink" width="1024" height="1024"><defs><style type="text/css"></style></defs><path d="M301.54 306.24c0-53.8-35.82-99.53-85.08-113.88v-94.6c0-18.38-15.22-33.63-33.58-33.63S149.3 79.37 149.3 97.76v94.6c-49.26 14.35-85.08 60.08-85.08 113.88s36.27 99.53 85.53 113.88l1.34 183.82c-50.15 14.35-86.87 60.08-86.87 114.78 0 53.8 35.82 99.53 85.08 113.88v92.36c0 18.38 15.22 33.63 33.58 33.63s33.58-15.24 33.58-33.63V832.6c49.26-14.35 85.08-60.08 85.08-113.88 0-53.35-34.93-98.19-83.29-113.43l-1.34-185.17c48.81-14.79 84.63-60.08 84.63-113.88z m-170.16 0c0-28.25 23.28-51.56 51.5-51.56s51.5 23.31 51.5 51.56c0 28.25-23.28 51.56-51.5 51.56s-51.5-23.31-51.5-51.56z m102.99 412.48c0 28.25-23.28 51.56-51.5 51.56s-51.5-23.31-51.5-51.56c0-28.25 23.28-51.56 51.5-51.56s51.5 23.32 51.5 51.56z m638.1-569.4H438.11c-48.36 0-87.32 39.01-87.32 87.43v138.99c0 48.42 38.96 87.43 87.32 87.43h434.35c48.36 0 87.32-39.01 87.32-87.43V236.75c0.01-48.43-38.95-87.43-87.31-87.43z m20.15 226.41c0 11.21-8.96 20.18-20.15 20.18H438.11c-11.19 0-20.15-8.97-20.15-20.18V236.75c0-11.21 8.96-20.18 20.15-20.18h434.35c11.19 0 20.15 8.97 20.15 20.18l0.01 138.98zM872.47 561.8H438.11c-48.36 0-87.32 39.01-87.32 87.43v138.99c0 48.42 38.96 87.43 87.32 87.43h434.35c48.36 0 87.32-39.01 87.32-87.43V649.23c0.01-48.42-38.95-87.43-87.31-87.43z m20.15 226.42c0 11.21-8.96 20.18-20.15 20.18H438.11c-11.19 0-20.15-8.97-20.15-20.18V649.23c0-11.21 8.96-20.18 20.15-20.18h434.35c11.19 0 20.15 8.97 20.15 20.18v138.99z" p-id="3653"></path></svg>