<?xml version="1.0" standalone="no"?><!DOCTYPE svg PUBLIC "-//W3C//DTD SVG 1.1//EN" "http://www.w3.org/Graphics/SVG/1.1/DTD/svg11.dtd"><svg t="1644915660815" class="icon" viewBox="0 0 1024 1024" version="1.1" xmlns="http://www.w3.org/2000/svg" p-id="2965" xmlns:xlink="http://www.w3.org/1999/xlink" width="1024" height="1024"><defs><style type="text/css"></style></defs><path d="M252.66 315.2c-65.6 0-118.4-52.8-118.4-118.4s52.8-118.4 118.4-118.4c51.2 0 96 33.6 112 78.4h382.4c108.8 0 196.8 88 196.8 196.8s-88 196.8-196.8 196.8h-86.4c-16 48-60.8 78.4-112 78.4-49.6 0-94.4-32-112-78.4h-124.8c-65.6 0-118.4 52.8-118.4 118.4s52.8 118.4 118.4 118.4h382.4c17.6-48 60.8-78.4 112-78.4 65.6 0 118.4 52.8 118.4 118.4s-52.8 118.4-118.4 118.4c-49.6 0-94.4-32-112-78.4h-380.8c-108.8 0-196.8-88-196.8-196.8s88-196.8 196.8-196.8h124.8c16-48 60.8-78.4 112-78.4 49.6 0 94.4 32 112 78.4h86.4c65.6 0 118.4-52.8 118.4-118.4s-52.8-118.4-118.4-118.4h-384c-16 46.4-60.8 78.4-112 78.4z m553.6 475.2c-22.4 0-38.4 19.2-38.4 41.6 0 20.8 17.6 36.8 38.4 38.4 22.4 0 38.4-19.2 38.4-41.6 0-22.4-17.6-38.4-38.4-38.4z m-256-316.8c-22.4 0-38.4 19.2-38.4 41.6 0 20.8 17.6 36.8 38.4 38.4 22.4 0 38.4-19.2 38.4-41.6-1.6-20.8-17.6-38.4-38.4-38.4z m-297.6-316.8c-22.4 1.6-38.4 19.2-36.8 41.6 1.6 20.8 17.6 36.8 36.8 36.8 22.4-1.6 38.4-19.2 36.8-41.6 0-19.2-16-35.2-36.8-36.8z" p-id="2966"></path></svg>